<?xml version="1.0" encoding="utf-8"?><!DOCTYPE svg PUBLIC "-//W3C//DTD SVG 1.1//EN" "http://www.w3.org/Graphics/SVG/1.1/DTD/svg11.dtd"><svg version="1.1" xmlns="http://www.w3.org/2000/svg" width="312.563" height="48" viewBox="0 0 312.563 48"><g transform="scale(0.188,0.188)"><g><rect /></g><g transform="translate(0,0)"><g transform="scale(1,-1) translate(0,-220)"><path stroke="none" fill="#ffffff" d="M136 211L152 193Q153 199 126 139Q193 150 204 153Q205 154 209 159Q212 163 212 163Q218 160 226 151Q226 150 224 149Q210 137 196 113L193 115L205 144Q146 135 132 130Q131 130 131 130Q129 131 123 134Q118 122 94 85L91 88Q112 121 125 156Q140 194 134 209L136 211ZM85 209Q86 208 88 205Q99 189 99 188Q99 187 97 185Q91 181 89 176Q80 158 71 144Q72 69 72 12Q71 -19 68 -24Q63 -19 57 -6Q57 -5 58 -3Q61 4 62 16Q65 54 63 133Q39 101 18 83L17 86Q57 129 77 174Q87 194 83 209H85ZM151 126Q170 114 170 113Q170 112 169 111Q165 104 166 95L167 2Q166 -24 159 -27Q159 -27 157 -25Q146 -10 125 8L127 10Q130 9 135 5Q153 -4 154 -4Q157 -4 157 15L156 92Q157 116 150 124Q150 125 151 125Q152 125 151 126ZM131 92Q141 76 141 75Q141 74 139 73Q134 70 131 65Q108 31 86 13L84 16Q128 64 128 91L131 92ZM181 83Q220 58 232 48Q237 36 232 27Q231 27 227 32Q210 54 180 80L181 83Z" /></g></g><g transform="translate(256,0)"><g transform="scale(1,-1) translate(0,-220)"><path stroke="none" fill="#ebeaec" d="M72 209Q73 208 75 206Q86 192 86 190Q86 189 84 185Q81 180 80 178Q79 175 78 169Q74 149 69 123Q94 127 102 130Q104 145 102 151L105 152Q117 137 117 135Q117 135 116 134Q112 127 111 118Q111 115 109 108Q106 97 105 91Q137 94 168 99Q166 120 150 142L153 144Q161 136 167 129Q177 143 196 174Q147 168 128 163Q126 163 126 163Q114 169 114 172Q155 175 193 181Q197 182 202 191Q204 194 204 194L218 182Q218 180 211 175Q207 171 206 170Q193 155 169 123Q173 116 177 100Q202 103 224 109Q230 110 231 110L243 100Q197 96 178 92Q183 65 181 19Q179 -21 170 -29Q170 -29 168 -27Q155 -11 130 10L132 13Q156 -2 165 -6Q170 -2 172 36Q173 70 169 92Q142 88 123 83Q119 82 118 82Q114 83 105 91Q101 75 90 47Q92 46 97 44Q115 36 120 30Q123 20 120 12Q119 12 115 16Q103 28 86 40Q69 9 20 -18L18 -14Q60 12 79 44Q59 55 47 60L59 114Q41 111 30 108Q28 107 27 107Q19 111 15 117Q34 118 60 121Q68 160 70 180Q72 194 70 208Q70 209 72 209ZM102 122L67 115L57 63Q75 55 83 51Q98 85 102 122Z" /></g></g><g transform="translate(512,0)"><g transform="scale(1,-1) translate(0,-220)"><path stroke="none" fill="#ebeaec" d="M9 -26V-15Q23 -11 29 -1Q26 -1 24 -1Q9 -1 9 12Q10 28 25 29Q41 28 43 8Q42 -14 9 -26Z" /></g></g><g transform="translate(571,0)"><g transform="scale(1,-1) translate(0,-220)"><path stroke="none" fill="#ebeaec" d="M127 211Q131 208 138 202Q146 196 146 195Q146 195 146 194Q140 178 145 129Q173 134 189 139Q192 140 192 140Q206 132 205 130Q191 128 146 121Q152 78 157 60Q171 76 178 88Q183 97 185 106Q184 105 185 108H187Q197 92 197 90Q197 89 195 88Q188 83 183 76Q181 74 176 68Q167 57 161 50Q165 36 179 15Q193 -1 213 -9Q216 5 215 35L219 36Q222 11 227 -18Q228 -27 228 -27Q203 -20 185 -4Q164 14 154 44Q133 27 109 11L106 15Q133 33 151 52Q141 88 138 119L92 112V76Q110 83 122 89L124 85L92 69Q92 33 93 6Q93 -21 89 -21Q89 -21 86 -18Q70 -3 50 11L52 14Q75 2 81 0Q84 0 84 23Q84 42 84 66Q64 56 47 46Q41 43 40 43Q28 46 22 50Q22 51 28 52Q52 59 83 72V111Q60 106 45 102Q42 101 42 101Q27 108 28 110Q45 112 83 117V158Q49 144 34 140L32 144Q105 173 104 186H106Q107 184 110 181Q117 173 117 172Q105 168 92 162V119Q132 125 137 127Q131 201 125 209Q124 210 126 210Q127 211 127 211ZM164 187Q171 183 183 176Q191 171 195 169Q197 158 192 148Q191 148 187 154Q175 171 162 184L164 187Z" /></g></g><g transform="translate(827,0)"><g transform="scale(1,-1) translate(0,-220)"><path stroke="none" fill="#ebeaec" d="M79 205L89 188Q123 191 161 196Q163 197 168 202Q171 205 171 205Q174 204 183 196Q183 195 180 192Q175 187 175 184Q175 180 173 171Q171 155 169 136Q170 135 173 133Q181 128 180 127Q164 125 121 119Q98 116 92 115Q92 105 90 105Q86 109 81 120Q81 121 82 124Q84 134 84 139Q82 171 80 184Q79 193 77 201Q76 203 76 204Q76 205 77 205Q79 205 79 205ZM166 189Q114 183 89 180L90 154Q133 161 144 166Q145 166 145 166Q150 162 154 156Q136 155 91 147L92 122Q157 131 161 133L166 189ZM212 108Q225 102 225 98Q219 98 210 97Q187 97 132 89V55Q162 60 179 66Q181 67 181 67Q190 62 194 57Q166 53 133 48L132 13Q158 2 181 -3Q204 -7 237 -4Q239 -4 238 -7Q214 -13 192 -20Q188 -21 188 -21Q187 -21 167 -11Q113 13 76 29Q49 -8 18 -27Q15 -27 16 -24Q80 30 81 70Q84 72 86 71Q87 67 92 60Q94 56 94 56Q94 56 91 51Q85 42 80 34Q105 24 123 17V88Q64 81 37 75Q26 80 24 83Q63 86 125 95Q196 104 212 108Z" /></g></g><g transform="translate(1083,0)"><g transform="scale(1,-1) translate(0,-220)"><path stroke="none" fill="#ebeaec" d="M72 207Q82 201 90 194Q90 194 89 191Q87 185 86 182Q85 175 85 161Q84 148 84 138Q97 140 108 145Q110 146 110 146Q123 140 123 137Q123 137 119 136Q105 135 84 131L83 113Q105 101 107 100Q108 91 105 82Q105 82 101 87Q90 101 83 108Q83 82 82 51Q81 29 81 15Q81 -15 77 -26Q77 -28 76 -26Q67 -8 67 -7Q67 -7 68 -5Q72 4 74 31L75 110Q48 58 19 30L16 32Q53 74 73 129Q66 128 47 124Q38 122 38 122Q32 127 28 131Q51 132 76 137Q76 148 76 185Q75 193 71 204L72 207ZM190 193Q201 186 204 179Q204 179 203 178Q194 174 188 168Q182 162 165 141Q148 120 136 106Q167 108 212 116Q213 117 217 122Q220 126 220 126Q232 119 234 115Q234 114 231 111Q226 106 225 104Q205 -1 181 -25Q180 -25 179 -23Q170 -9 151 7L153 10Q158 7 166 2Q180 -6 181 -6Q204 29 214 108L186 105Q193 95 193 93Q193 93 191 91Q188 89 187 87Q157 13 105 -17L103 -14Q145 17 167 63Q182 96 180 104L154 100Q161 90 161 89Q161 89 159 87Q156 85 155 83Q135 40 98 12L95 14Q126 41 144 80Q144 80 144 81Q149 93 149 99Q139 98 132 95Q130 94 126 91Q123 89 123 89Q115 98 114 100Q114 100 116 101Q121 104 125 108Q137 119 171 162Q178 170 181 174Q165 173 132 166Q125 165 124 165Q117 168 115 173Q115 173 127 175Q161 178 179 182Q182 182 188 190Q190 193 190 193Z" /></g></g><g transform="translate(1339,0)"><g transform="scale(1,-1) translate(0,-220)"><path stroke="none" fill="#ebeaec" d="M72 211Q86 190 84 190Q81 187 72 169Q68 162 66 157Q82 161 94 165Q98 166 100 167Q112 158 110 158Q98 155 61 148L41 116Q83 123 91 129Q93 130 103 121L74 114V81Q88 84 93 87Q93 88 102 81Q112 82 137 86Q151 88 158 89V117L121 111L115 115L106 103L102 104Q147 174 144 208L148 209Q158 189 158 187Q158 186 156 184Q149 176 145 165Q171 170 182 173Q183 173 188 180Q190 183 190 183Q201 175 203 171Q203 170 197 164Q195 163 195 163Q190 159 173 129L201 134Q202 134 206 140Q208 142 208 142Q209 142 219 132Q219 131 214 126Q212 125 212 125Q211 119 209 96Q228 100 231 103Q238 98 241 93Q239 93 233 92Q219 90 208 88L206 60Q215 52 213 52Q199 50 167 46V-8Q166 -26 161 -33Q161 -33 155 -26Q140 -11 126 3L129 6Q155 -13 156 -12Q158 -13 158 45Q140 43 120 40Q120 39 111 48Q123 49 158 53V82Q133 78 113 75Q110 74 110 74Q109 74 106 76Q104 77 102 78L74 73L73 18L106 44L109 41Q81 12 68 0Q68 -1 53 6Q65 15 65 17L66 72Q40 67 32 65Q27 67 23 72Q34 73 66 79L65 113L48 108Q47 108 40 114Q32 103 20 87L16 90Q66 157 69 210L72 211ZM182 164L141 156Q132 139 119 120L164 127L182 164ZM202 125L167 120V90L200 95L202 125ZM199 88L167 83V54Q188 56 197 59L199 88Z" /></g></g><g transform="translate(1595,0)"><g transform="scale(1,-1) translate(0,-220)"><path stroke="none" fill="#ebeaec" d="M48 184L45 58H35L30 184H48ZM21 13Q22 29 39 30Q55 29 56 13Q55 0 39 -2Q22 -1 21 13Z" /></g></g></g></svg>