<!-- 头部hero标题底部的波浪边缘 -->
<!-- 教程 https://segmentfault.com/a/1190000010627039-->
<svg   xmlns="http://www.w3.org/2000/svg" xmlns:xlink="http://www.w3.org/1999/xlink" viewBox="0 0 1600 100" ><path d="M0 0v64c35 13 59 31 125 31 104 0 104-44 209-44s105 44 209 44 105-44 209-44 105 44 209 44 105-44 209-44 106 44 209 44 105-44 209-44h12V0z" fill="#ccc"></path> <path  d="M610 77c39 0 39-25 77-25s38 25 76 25 39-25 77-25 38 25 76 25 39-25 77-25 38 25 76 25 39-25 77-25 38 25 76 25 38-25 77-25 38 25 76 25 38-25 76-25 39 25 77 25c32 0 37-18 62-24V0H15v77h9c36 0 37-25 73-25s37 25 74 25 36-25 73-25 37 25 73 25 37-25 74-25 36 25 73 25 37-25 73-25 37 25 74 25" fill="#ccc"></path> <path  d="M0 0v69c25-12 37-32 80-32 60 0 60 40 120 40s60-40 120-40 60 40 120 40 60-40 120-40 60 40 120 40 60-40 120-40 61 40 120 40 60-40 120-40 60 40 120 40 60-40 120-40 60 40 120 40 60-40 120-40c42 0 55 20 80 32V0z" fill="#ccc"></path></svg>